<svg width="32" height="32" viewBox="0 0 32 32" fill="none" xmlns="http://www.w3.org/2000/svg">
<g filter="url(#filter0_n_1_2)">
<path d="M13.8295 12.4545C13.7784 12.0227 13.571 11.6875 13.2074 11.4489C12.8438 11.2102 12.3977 11.0909 11.8693 11.0909C11.483 11.0909 11.1449 11.1534 10.8551 11.2784C10.5682 11.4034 10.3438 11.5753 10.1818 11.794C10.0227 12.0128 9.94318 12.2614 9.94318 12.5398C9.94318 12.7727 9.99858 12.973 10.1094 13.1406C10.223 13.3054 10.3679 13.4432 10.544 13.554C10.7202 13.6619 10.9048 13.7514 11.098 13.8224C11.2912 13.8906 11.4688 13.946 11.6307 13.9886L12.517 14.2273C12.7443 14.2869 12.9972 14.3693 13.2756 14.4744C13.5568 14.5795 13.8253 14.723 14.081 14.9048C14.3395 15.0838 14.5526 15.3139 14.7202 15.5952C14.8878 15.8764 14.9716 16.2216 14.9716 16.6307C14.9716 17.1023 14.848 17.5284 14.6009 17.9091C14.3565 18.2898 13.9986 18.5923 13.527 18.8168C13.0582 19.0412 12.4886 19.1534 11.8182 19.1534C11.1932 19.1534 10.652 19.0526 10.1946 18.8509C9.74006 18.6491 9.3821 18.3679 9.12074 18.0071C8.86222 17.6463 8.71591 17.2273 8.68182 16.75H9.77273C9.80114 17.0795 9.91193 17.3523 10.1051 17.5682C10.3011 17.7812 10.5483 17.9403 10.8466 18.0455C11.1477 18.1477 11.4716 18.1989 11.8182 18.1989C12.2216 18.1989 12.5838 18.1335 12.9048 18.0028C13.2259 17.8693 13.4801 17.6847 13.6676 17.4489C13.8551 17.2102 13.9489 16.9318 13.9489 16.6136C13.9489 16.3239 13.8679 16.0881 13.706 15.9062C13.544 15.7244 13.331 15.5767 13.0668 15.4631C12.8026 15.3494 12.517 15.25 12.2102 15.1648L11.1364 14.858C10.4545 14.6619 9.91477 14.3821 9.51705 14.0185C9.11932 13.6548 8.92045 13.179 8.92045 12.5909C8.92045 12.1023 9.05256 11.6761 9.31676 11.3125C9.58381 10.946 9.94176 10.6619 10.3906 10.4602C10.8423 10.2557 11.3466 10.1534 11.9034 10.1534C12.4659 10.1534 12.9659 10.2543 13.4034 10.456C13.8409 10.6548 14.1875 10.9276 14.4432 11.2741C14.7017 11.6207 14.8381 12.0142 14.8523 12.4545H13.8295ZM16.7092 19V10.2727H17.766V14.6023H17.8683L21.7887 10.2727H23.1694L19.5046 14.2102L23.1694 19H21.891L18.8569 14.9432L17.766 16.1705V19H16.7092Z" fill="#FC2ED6" fill-opacity="0.97"/>
<path d="M13.8295 12.4545C13.7784 12.0227 13.571 11.6875 13.2074 11.4489C12.8438 11.2102 12.3977 11.0909 11.8693 11.0909C11.483 11.0909 11.1449 11.1534 10.8551 11.2784C10.5682 11.4034 10.3438 11.5753 10.1818 11.794C10.0227 12.0128 9.94318 12.2614 9.94318 12.5398C9.94318 12.7727 9.99858 12.973 10.1094 13.1406C10.223 13.3054 10.3679 13.4432 10.544 13.554C10.7202 13.6619 10.9048 13.7514 11.098 13.8224C11.2912 13.8906 11.4688 13.946 11.6307 13.9886L12.517 14.2273C12.7443 14.2869 12.9972 14.3693 13.2756 14.4744C13.5568 14.5795 13.8253 14.723 14.081 14.9048C14.3395 15.0838 14.5526 15.3139 14.7202 15.5952C14.8878 15.8764 14.9716 16.2216 14.9716 16.6307C14.9716 17.1023 14.848 17.5284 14.6009 17.9091C14.3565 18.2898 13.9986 18.5923 13.527 18.8168C13.0582 19.0412 12.4886 19.1534 11.8182 19.1534C11.1932 19.1534 10.652 19.0526 10.1946 18.8509C9.74006 18.6491 9.3821 18.3679 9.12074 18.0071C8.86222 17.6463 8.71591 17.2273 8.68182 16.75H9.77273C9.80114 17.0795 9.91193 17.3523 10.1051 17.5682C10.3011 17.7812 10.5483 17.9403 10.8466 18.0455C11.1477 18.1477 11.4716 18.1989 11.8182 18.1989C12.2216 18.1989 12.5838 18.1335 12.9048 18.0028C13.2259 17.8693 13.4801 17.6847 13.6676 17.4489C13.8551 17.2102 13.9489 16.9318 13.9489 16.6136C13.9489 16.3239 13.8679 16.0881 13.706 15.9062C13.544 15.7244 13.331 15.5767 13.0668 15.4631C12.8026 15.3494 12.517 15.25 12.2102 15.1648L11.1364 14.858C10.4545 14.6619 9.91477 14.3821 9.51705 14.0185C9.11932 13.6548 8.92045 13.179 8.92045 12.5909C8.92045 12.1023 9.05256 11.6761 9.31676 11.3125C9.58381 10.946 9.94176 10.6619 10.3906 10.4602C10.8423 10.2557 11.3466 10.1534 11.9034 10.1534C12.4659 10.1534 12.9659 10.2543 13.4034 10.456C13.8409 10.6548 14.1875 10.9276 14.4432 11.2741C14.7017 11.6207 14.8381 12.0142 14.8523 12.4545H13.8295ZM16.7092 19V10.2727H17.766V14.6023H17.8683L21.7887 10.2727H23.1694L19.5046 14.2102L23.1694 19H21.891L18.8569 14.9432L17.766 16.1705V19H16.7092Z" fill="#CAB302" fill-opacity="0.97"/>
</g>
<defs>
<filter id="filter0_n_1_2" x="8.68182" y="10.1534" width="14.4876" height="9" filterUnits="userSpaceOnUse" color-interpolation-filters="sRGB">
<feFlood flood-opacity="0" result="BackgroundImageFix"/>
<feBlend mode="normal" in="SourceGraphic" in2="BackgroundImageFix" result="shape"/>
<feTurbulence type="fractalNoise" baseFrequency="0.026301946491003036 0.026301946491003036" stitchTiles="stitch" numOctaves="3" result="noise" seed="5545" />
<feColorMatrix in="noise" type="luminanceToAlpha" result="alphaNoise" />
<feComponentTransfer in="alphaNoise" result="coloredNoise1">
<feFuncA type="discrete" tableValues="0 0 0 1 1 1 1 1 1 1 1 1 1 1 1 1 1 1 1 1 1 1 1 1 1 1 1 1 1 1 1 1 1 1 1 1 1 1 1 1 1 1 1 1 1 1 0 0 0 0 0 0 0 0 0 0 0 0 0 0 0 0 0 0 0 0 0 0 0 0 0 0 0 0 0 0 0 0 0 0 0 0 0 0 0 0 0 0 0 0 0 0 0 0 0 0 0 0 0 0 "/>
</feComponentTransfer>
<feComposite operator="in" in2="shape" in="coloredNoise1" result="noise1Clipped" />
<feFlood flood-color="rgba(179, 5, 84, 0.92)" result="color1Flood" />
<feComposite operator="in" in2="noise1Clipped" in="color1Flood" result="color1" />
<feMerge result="effect1_noise_1_2">
<feMergeNode in="shape" />
<feMergeNode in="color1" />
</feMerge>
</filter>
</defs>
</svg>
