<svg width="101" height="39" viewBox="0 0 101 39" fill="none" xmlns="http://www.w3.org/2000/svg">
<g filter="url(#filter0_d_1_7)">
<path d="M12.2715 0.890625C13.5749 0.890625 14.7734 1.07292 15.8672 1.4375C16.9609 1.80208 17.9453 2.03906 18.8203 2.14844C18.3372 3.84375 18.319 5.67122 18.7656 7.63086C18.3008 8.02279 17.7676 8.25065 17.166 8.31445C17.0931 8.14128 16.9609 7.78125 16.7695 7.23438C16.5872 6.67839 16.4095 6.22266 16.2363 5.86719C16.0723 5.51172 15.8398 5.10612 15.5391 4.65039C15.2474 4.19466 14.8555 3.83464 14.3633 3.57031C13.8802 3.29688 13.3242 3.11003 12.6953 3.00977C11.7747 3.0918 11.0638 3.37435 10.5625 3.85742C10.0612 4.34049 9.81055 4.96484 9.81055 5.73047C9.81055 6.51432 10.0111 7.16146 10.4121 7.67188C10.8132 8.17318 11.3327 8.55143 11.9707 8.80664C12.6178 9.05273 13.3288 9.27148 14.1035 9.46289C14.8783 9.64518 15.6484 9.87305 16.4141 10.1465C17.1797 10.4108 17.8815 10.7617 18.5195 11.1992C19.1667 11.6276 19.6908 12.2702 20.0918 13.127C20.4928 13.9837 20.6934 15.0273 20.6934 16.2578C20.6934 17.7526 20.2604 19.0378 19.3945 20.1133C18.5286 21.1888 17.5078 21.959 16.332 22.4238C15.1562 22.8887 13.9531 23.1211 12.7227 23.1211C10.0156 23.1211 7.33594 22.5241 4.68359 21.3301C4.73828 20.1543 4.76562 19.4342 4.76562 19.1699C4.76562 17.6934 4.62435 16.1074 4.3418 14.4121C5.16211 14.0202 6.07812 14.002 7.08984 14.3574C7.42708 16.4264 8.07878 18.0124 9.04492 19.1152C10.0202 20.2181 11.0866 20.8333 12.2441 20.9609C13.3288 20.888 14.1628 20.5371 14.7461 19.9082C15.3385 19.2702 15.6348 18.4635 15.6348 17.4883C15.6348 16.668 15.4434 15.9753 15.0605 15.4102C14.6777 14.8359 14.1719 14.3939 13.543 14.084C12.9141 13.765 12.2305 13.4779 11.4922 13.2227C10.763 12.9674 10.0247 12.6986 9.27734 12.416C8.52995 12.1243 7.8418 11.778 7.21289 11.377C6.5931 10.9759 6.0918 10.4154 5.70898 9.69531C5.32617 8.97526 5.13477 8.10026 5.13477 7.07031C5.13477 6.14062 5.2806 5.30664 5.57227 4.56836C5.87305 3.83008 6.26042 3.23763 6.73438 2.79102C7.21745 2.3444 7.77799 1.9707 8.41602 1.66992C9.06315 1.36914 9.70117 1.16406 10.3301 1.05469C10.9681 0.945312 11.6152 0.890625 12.2715 0.890625ZM12.2715 1.45117C11.5059 1.45117 10.763 1.54232 10.043 1.72461C9.32292 1.89779 8.62109 2.1849 7.9375 2.58594C7.26302 2.98698 6.7207 3.57487 6.31055 4.34961C5.90039 5.12435 5.69531 6.03125 5.69531 7.07031C5.69531 7.99089 5.88672 8.78385 6.26953 9.44922C6.65234 10.1055 7.15365 10.6159 7.77344 10.9805C8.40234 11.3451 9.09049 11.6686 9.83789 11.9512C10.5853 12.2246 11.3236 12.5026 12.0527 12.7852C12.791 13.0677 13.4746 13.3867 14.1035 13.7422C14.7324 14.0977 15.2383 14.5944 15.6211 15.2324C16.0039 15.8613 16.1953 16.6133 16.1953 17.4883C16.1953 18.7005 15.8079 19.6803 15.0332 20.4277C14.2585 21.1751 13.1602 21.5488 11.7383 21.5488C10.3711 21.5488 9.09961 20.9792 7.92383 19.8398C6.74805 18.7005 5.97331 16.9961 5.59961 14.7266C5.41732 14.6081 5.20312 14.6081 4.95703 14.7266C5.20312 16.1576 5.32617 17.6387 5.32617 19.1699C5.32617 19.5983 5.30794 20.2044 5.27148 20.9883C7.5319 22.0365 9.6875 22.5605 11.7383 22.5605C13.4336 22.5605 15.0013 22.0592 16.4414 21.0566C17.8815 20.0449 18.6016 18.6322 18.6016 16.8184C18.6016 15.7884 18.401 14.918 18 14.207C17.599 13.487 17.0749 12.9264 16.4277 12.5254C15.7806 12.1243 15.0697 11.778 14.2949 11.4863C13.5202 11.1947 12.75 10.9212 11.9844 10.666C11.2188 10.4017 10.5124 10.11 9.86523 9.79102C9.22721 9.47201 8.70768 9.02083 8.30664 8.4375C7.9056 7.84505 7.70508 7.12956 7.70508 6.29102C7.70508 5.11523 8.10156 4.17643 8.89453 3.47461C9.6875 2.77279 10.8132 2.42188 12.2715 2.42188C14.8053 2.42188 16.5508 4.17643 17.5078 7.68555C17.7904 7.73112 17.9863 7.66732 18.0957 7.49414C17.7949 5.27018 17.1341 3.70703 16.1133 2.80469C15.1016 1.90234 13.821 1.45117 12.2715 1.45117ZM26.5449 12.0605C26.9733 12.1335 27.3105 12.3021 27.5566 12.5664C27.8118 12.8216 27.9395 13.1497 27.9395 13.5508C27.9395 14.0339 27.7799 14.4349 27.4609 14.7539C27.1419 15.0638 26.7227 15.2188 26.2031 15.2188C25.6654 15.2188 25.1777 15.0273 24.7402 14.6445C24.3027 14.2617 24.084 13.7194 24.084 13.0176C24.084 11.8236 24.6491 10.8574 25.7793 10.1191C26.9186 9.38086 28.4043 9.01172 30.2363 9.01172C31.9772 9.01172 33.1986 9.36263 33.9004 10.0645C34.6113 10.7572 34.9668 11.9284 34.9668 13.5781V18.3633L35.8418 18.3359C36.5892 18.3906 37.1087 18.7461 37.4004 19.4023L36.9629 20.1543C36.6803 20.5827 36.4434 20.9154 36.252 21.1523C36.0697 21.3802 35.8053 21.64 35.459 21.9316C35.1126 22.2233 34.707 22.4329 34.2422 22.5605C33.7773 22.6882 33.235 22.752 32.6152 22.752C31.8496 22.752 31.2708 22.4648 30.8789 21.8906C29.8945 22.6016 28.6094 22.957 27.0234 22.957C26.3307 22.957 25.7383 22.8477 25.2461 22.6289C24.763 22.4193 24.4076 22.1367 24.1797 21.7812C23.9609 21.4258 23.806 21.0931 23.7148 20.7832C23.6237 20.4733 23.5781 20.1589 23.5781 19.8398C23.5781 18.5 24.0293 17.4974 24.9316 16.832C25.834 16.1667 27.6569 15.4831 30.4004 14.7812V13.291C30.4004 12.5618 30.2454 12.0286 29.9355 11.6914C29.6348 11.3542 29.2428 11.1855 28.7598 11.1855C27.7298 11.1855 26.9915 11.4772 26.5449 12.0605ZM30.9609 16.0664V18.9238C30.0859 20.0814 29.1927 20.6602 28.2812 20.6602C27.7526 20.6602 27.3197 20.5326 26.9824 20.2773C26.6543 20.0221 26.4902 19.6621 26.4902 19.1973C26.4902 18.4499 26.7956 17.8346 27.4062 17.3516C28.026 16.8685 29.2109 16.4401 30.9609 16.0664ZM30.4004 18.7461V17.0781C29.0788 17.5612 28.418 18.2676 28.418 19.1973C28.418 19.5892 28.5592 19.8626 28.8418 20.0176C29.3249 19.8444 29.8444 19.4206 30.4004 18.7461ZM26.2031 14.0156C25.8841 14.0156 25.6608 13.7832 25.5332 13.3184C25.3509 12.571 25.5742 11.9193 26.2031 11.3633C26.8229 10.8164 27.7572 10.543 29.0059 10.543C29.5983 10.543 30.0723 10.7754 30.4277 11.2402C30.7832 11.696 30.9609 12.3796 30.9609 13.291V15.1914C28.2721 15.8841 26.4629 16.5404 25.5332 17.1602C24.6035 17.7708 24.1387 18.6641 24.1387 19.8398C24.1387 20.4596 24.3483 21.043 24.7676 21.5898C25.1868 22.1276 25.9388 22.3965 27.0234 22.3965C27.4518 22.3965 27.8529 22.3281 28.2266 22.1914C28.6094 22.0547 29.0013 21.8359 29.4023 21.5352C29.8125 21.2253 30.0632 21.0293 30.1543 20.9473C30.2454 20.8652 30.3958 20.724 30.6055 20.5234C30.8242 20.3138 30.9427 20.1999 30.9609 20.1816C31.0794 21.5215 31.6309 22.1914 32.6152 22.1914C32.8613 22.1914 33.1439 22.1276 33.4629 22C33.7819 21.8724 34.1009 21.6217 34.4199 21.248C34.748 20.8743 34.9531 20.6283 35.0352 20.5098C35.1263 20.3822 35.2585 20.1862 35.4316 19.9219C35.6048 19.6484 35.7324 19.4616 35.8145 19.3613C35.696 19.1061 35.4681 18.9603 35.1309 18.9238C34.6296 19.6895 34.1191 20.0632 33.5996 20.0449C33.2259 20.0267 33.0391 19.7624 33.0391 19.252V13.5781C33.0391 12.1198 32.752 11.0898 32.1777 10.4883C31.6126 9.8776 30.6374 9.57227 29.252 9.57227C28.0033 9.57227 26.9186 9.89583 25.998 10.543C25.0866 11.181 24.6309 12.0059 24.6309 13.0176C24.6309 13.5371 24.7904 13.9427 25.1094 14.2344C25.4284 14.5169 25.793 14.6582 26.2031 14.6582C26.3307 14.4759 26.3307 14.2617 26.2031 14.0156ZM47.9414 21.3711C47.832 21.5807 47.832 21.804 47.9414 22.041C50.3112 21.9863 52.6855 21.9863 55.0645 22.041C55.1921 21.8223 55.1921 21.599 55.0645 21.3711C52.8405 21.2617 51.7194 20.8242 51.7012 20.0586L51.5645 13.1816C51.5189 11.9329 51.3138 11.0215 50.9492 10.4473C50.5938 9.86393 49.9648 9.57227 49.0625 9.57227C47.5495 9.57227 45.7493 10.6159 43.6621 12.7031V9.98242C43.5892 9.83659 43.4297 9.7181 43.1836 9.62695C41.9167 10.2194 40.5996 10.5931 39.2324 10.748C39.1777 10.9668 39.1777 11.181 39.2324 11.3906C40.2806 11.4453 41.0553 11.6322 41.5566 11.9512C41.6569 14.6764 41.6569 17.3789 41.5566 20.0586C41.5384 20.7331 40.7546 21.1706 39.2051 21.3711C39.0957 21.5807 39.0957 21.804 39.2051 22.041C41.5749 21.9499 43.9583 21.9499 46.3555 22.041C46.4648 21.804 46.4648 21.5807 46.3555 21.3711C44.651 21.1888 43.7897 20.7513 43.7715 20.0586C43.6986 18.1628 43.6621 16.0026 43.6621 13.5781C45.4941 11.9648 46.9297 11.1582 47.9688 11.1582C48.9622 11.1582 49.459 11.9831 49.459 13.6328L49.4316 20.0586C49.4316 20.5052 49.2949 20.8197 49.0215 21.002C48.748 21.1751 48.388 21.2982 47.9414 21.3711ZM47.5039 22.5195C47.276 21.9818 47.276 21.4303 47.5039 20.8652C47.7956 20.8652 48.0964 20.7878 48.4062 20.6328C48.7161 20.4688 48.8711 20.2773 48.8711 20.0586L48.8984 13.6328C48.8984 12.6393 48.7025 12.0332 48.3105 11.8145C47.6361 11.9785 46.7292 12.4707 45.5898 13.291C45.5898 15.7975 45.6263 18.0443 45.6992 20.0312C45.7448 20.5143 46.1094 20.7923 46.793 20.8652C47.0208 21.4303 47.0208 21.9818 46.793 22.5195C44.1224 22.4284 41.4382 22.4284 38.7402 22.5195C38.5124 21.9818 38.5124 21.4303 38.7402 20.8652C40.2259 20.6647 40.9779 20.3867 40.9961 20.0312C41.0964 17.4609 41.0964 14.877 40.9961 12.2793C40.3854 12.097 39.6335 11.9785 38.7402 11.9238C38.5306 11.377 38.5306 10.7982 38.7402 10.1875C40.1165 10.1146 41.666 9.70443 43.3887 8.95703C44.373 9.02995 45.1068 9.32617 45.5898 9.8457V10.2969C46.8841 9.4401 48.3698 9.01172 50.0469 9.01172C51.2773 9.01172 52.1523 9.34896 52.6719 10.0234C53.2005 10.6888 53.474 11.7415 53.4922 13.1816C53.5286 16.8001 53.5742 19.0924 53.6289 20.0586C53.6471 20.4323 54.2897 20.7012 55.5566 20.8652C55.7663 21.4668 55.748 22.0182 55.502 22.5195C52.8314 22.4648 50.1654 22.4648 47.5039 22.5195ZM59.7676 3.85742C59.4941 4.17643 59.3574 4.56836 59.3574 5.0332C59.3574 5.27018 59.3939 5.49349 59.4668 5.70312C59.5488 5.90365 59.6582 6.08138 59.7949 6.23633C59.9316 6.38216 60.0866 6.50065 60.2598 6.5918C60.4421 6.67383 60.6335 6.71484 60.834 6.71484C61.0254 6.71484 61.2122 6.67383 61.3945 6.5918C61.5768 6.50065 61.7363 6.38216 61.873 6.23633C62.0098 6.08138 62.1191 5.90365 62.2012 5.70312C62.2832 5.49349 62.3242 5.27018 62.3242 5.0332C62.3242 4.79622 62.2832 4.57747 62.2012 4.37695C62.1191 4.16732 62.0098 3.98958 61.873 3.84375C61.7363 3.6888 61.5768 3.57031 61.3945 3.48828C61.2122 3.39714 61.0254 3.35156 60.834 3.35156C60.6426 3.35156 60.4557 3.39258 60.2734 3.47461C60.0911 3.55664 59.9225 3.68424 59.7676 3.85742ZM57.5254 28.8086C56.9694 28.8086 56.5365 28.6172 56.2266 28.2344C55.9167 27.8516 55.7617 27.4232 55.7617 26.9492C55.7617 26.2839 55.9987 25.8737 56.4727 25.7188C56.6003 25.5365 56.6003 25.3223 56.4727 25.0762C55.9805 25.0762 55.5794 25.2493 55.2695 25.5957C54.9505 25.9421 54.791 26.4297 54.791 27.0586C54.791 27.6966 55.028 28.2936 55.502 28.8496C55.9759 29.4147 56.6139 29.6973 57.416 29.6973C58.2728 29.6973 59.0111 29.5013 59.6309 29.1094C60.2507 28.7174 60.7155 28.1797 61.0254 27.4961C61.3444 26.8216 61.5677 26.1152 61.6953 25.377C61.832 24.6387 61.9004 23.8411 61.9004 22.9844V9.98242C61.8275 9.83659 61.668 9.7181 61.4219 9.62695C60.2096 10.2012 58.8014 10.5749 57.1973 10.748C57.1426 10.9668 57.1426 11.181 57.1973 11.3906C58.4277 11.4453 59.3027 11.6322 59.8223 11.9512C59.959 16.2624 59.959 20.6875 59.8223 25.2266C59.7858 26.5482 59.5898 27.4733 59.2344 28.002C58.8789 28.5397 58.3092 28.8086 57.5254 28.8086ZM61.0254 2.79102C63.0853 2.79102 64.1152 3.53841 64.1152 5.0332C64.1152 6.52799 63.0853 7.27539 61.0254 7.27539C60.4147 7.27539 59.8906 7.05664 59.4531 6.61914C59.0156 6.17253 58.7969 5.64388 58.7969 5.0332C58.7969 4.41341 59.0156 3.88477 59.4531 3.44727C59.8906 3.00977 60.4147 2.79102 61.0254 2.79102ZM57.0332 28.166C57.89 28.3848 58.4733 28.207 58.7832 27.6328C59.1022 27.0677 59.2617 26.2656 59.2617 25.2266V12.2793C58.6693 12.097 57.8398 11.9785 56.7734 11.9238C56.5729 11.377 56.5729 10.7982 56.7734 10.1875C58.3047 10.0964 59.918 9.6862 61.6133 8.95703C62.6068 9.02995 63.3451 9.32617 63.8281 9.8457V22.9844C63.8464 24.1966 63.6868 25.3268 63.3496 26.375C63.0215 27.4323 62.4336 28.3438 61.5859 29.1094C60.7474 29.875 59.7129 30.2578 58.4824 30.2578C57.1243 30.2578 56.0671 29.9434 55.3105 29.3145C54.554 28.6947 54.1758 27.888 54.1758 26.8945C54.1758 26.2109 54.3854 25.6413 54.8047 25.1855C55.224 24.7389 55.7891 24.5156 56.5 24.5156C57.7122 24.5156 58.3184 25.1035 58.3184 26.2793C58.3184 27.2546 57.89 27.8835 57.0332 28.166ZM70.7324 12.0605C71.1608 12.1335 71.498 12.3021 71.7441 12.5664C71.9993 12.8216 72.127 13.1497 72.127 13.5508C72.127 14.0339 71.9674 14.4349 71.6484 14.7539C71.3294 15.0638 70.9102 15.2188 70.3906 15.2188C69.8529 15.2188 69.3652 15.0273 68.9277 14.6445C68.4902 14.2617 68.2715 13.7194 68.2715 13.0176C68.2715 11.8236 68.8366 10.8574 69.9668 10.1191C71.1061 9.38086 72.5918 9.01172 74.4238 9.01172C76.1647 9.01172 77.3861 9.36263 78.0879 10.0645C78.7988 10.7572 79.1543 11.9284 79.1543 13.5781V18.3633L80.0293 18.3359C80.7767 18.3906 81.2962 18.7461 81.5879 19.4023L81.1504 20.1543C80.8678 20.5827 80.6309 20.9154 80.4395 21.1523C80.2572 21.3802 79.9928 21.64 79.6465 21.9316C79.3001 22.2233 78.8945 22.4329 78.4297 22.5605C77.9648 22.6882 77.4225 22.752 76.8027 22.752C76.0371 22.752 75.4583 22.4648 75.0664 21.8906C74.082 22.6016 72.7969 22.957 71.2109 22.957C70.5182 22.957 69.9258 22.8477 69.4336 22.6289C68.9505 22.4193 68.5951 22.1367 68.3672 21.7812C68.1484 21.4258 67.9935 21.0931 67.9023 20.7832C67.8112 20.4733 67.7656 20.1589 67.7656 19.8398C67.7656 18.5 68.2168 17.4974 69.1191 16.832C70.0215 16.1667 71.8444 15.4831 74.5879 14.7812V13.291C74.5879 12.5618 74.4329 12.0286 74.123 11.6914C73.8223 11.3542 73.4303 11.1855 72.9473 11.1855C71.9173 11.1855 71.179 11.4772 70.7324 12.0605ZM75.1484 16.0664V18.9238C74.2734 20.0814 73.3802 20.6602 72.4688 20.6602C71.9401 20.6602 71.5072 20.5326 71.1699 20.2773C70.8418 20.0221 70.6777 19.6621 70.6777 19.1973C70.6777 18.4499 70.9831 17.8346 71.5938 17.3516C72.2135 16.8685 73.3984 16.4401 75.1484 16.0664ZM74.5879 18.7461V17.0781C73.2663 17.5612 72.6055 18.2676 72.6055 19.1973C72.6055 19.5892 72.7467 19.8626 73.0293 20.0176C73.5124 19.8444 74.0319 19.4206 74.5879 18.7461ZM70.3906 14.0156C70.0716 14.0156 69.8483 13.7832 69.7207 13.3184C69.5384 12.571 69.7617 11.9193 70.3906 11.3633C71.0104 10.8164 71.9447 10.543 73.1934 10.543C73.7858 10.543 74.2598 10.7754 74.6152 11.2402C74.9707 11.696 75.1484 12.3796 75.1484 13.291V15.1914C72.4596 15.8841 70.6504 16.5404 69.7207 17.1602C68.791 17.7708 68.3262 18.6641 68.3262 19.8398C68.3262 20.4596 68.5358 21.043 68.9551 21.5898C69.3743 22.1276 70.1263 22.3965 71.2109 22.3965C71.6393 22.3965 72.0404 22.3281 72.4141 22.1914C72.7969 22.0547 73.1888 21.8359 73.5898 21.5352C74 21.2253 74.2507 21.0293 74.3418 20.9473C74.4329 20.8652 74.5833 20.724 74.793 20.5234C75.0117 20.3138 75.1302 20.1999 75.1484 20.1816C75.2669 21.5215 75.8184 22.1914 76.8027 22.1914C77.0488 22.1914 77.3314 22.1276 77.6504 22C77.9694 21.8724 78.2884 21.6217 78.6074 21.248C78.9355 20.8743 79.1406 20.6283 79.2227 20.5098C79.3138 20.3822 79.446 20.1862 79.6191 19.9219C79.7923 19.6484 79.9199 19.4616 80.002 19.3613C79.8835 19.1061 79.6556 18.9603 79.3184 18.9238C78.8171 19.6895 78.3066 20.0632 77.7871 20.0449C77.4134 20.0267 77.2266 19.7624 77.2266 19.252V13.5781C77.2266 12.1198 76.9395 11.0898 76.3652 10.4883C75.8001 9.8776 74.8249 9.57227 73.4395 9.57227C72.1908 9.57227 71.1061 9.89583 70.1855 10.543C69.2741 11.181 68.8184 12.0059 68.8184 13.0176C68.8184 13.5371 68.9779 13.9427 69.2969 14.2344C69.6159 14.5169 69.9805 14.6582 70.3906 14.6582C70.5182 14.4759 70.5182 14.2617 70.3906 14.0156ZM95.916 9.36719C96.0983 9.95052 96.0801 10.502 95.8613 11.0215C94.722 11.0762 94.0111 11.4225 93.7285 12.0605L89.5312 22.1641L88.041 26.1152C87.4486 27.7012 86.8424 28.7858 86.2227 29.3691C85.612 29.9616 84.8464 30.2578 83.9258 30.2578C83.1602 30.2578 82.5449 30.0254 82.0801 29.5605C81.6152 29.0957 81.3828 28.5169 81.3828 27.8242C81.3828 27.1497 81.6152 26.5801 82.0801 26.1152C82.5449 25.6504 83.1146 25.418 83.7891 25.418C84.5911 25.418 85.2337 25.7233 85.7168 26.334L87.3711 21.9727L83.2285 12.0605C83.028 11.5228 82.2806 11.1764 80.9863 11.0215C80.7493 10.502 80.7311 9.95052 80.9316 9.36719C84.0124 9.48568 86.8242 9.48568 89.3672 9.36719C89.5495 9.95052 89.5312 10.502 89.3125 11.0215C88.7656 11.0579 88.3919 11.1445 88.1914 11.2812C88 11.4089 87.9727 11.6322 88.1094 11.9512L89.7773 16.0391L91.3223 11.9512C91.4316 11.6686 91.3997 11.4499 91.2266 11.2949C91.0625 11.1309 90.6842 11.0397 90.0918 11.0215C89.8639 10.502 89.8457 9.95052 90.0371 9.36719C90.7845 9.40365 92.7441 9.40365 95.916 9.36719ZM95.4922 9.87305C93.4779 9.96419 91.8008 9.96419 90.4609 9.87305C90.3607 10.1191 90.3607 10.3333 90.4609 10.5156C90.8073 10.5339 91.099 10.5749 91.3359 10.6387C91.5729 10.6934 91.7689 10.8255 91.9238 11.0352C92.0788 11.2357 92.0924 11.5046 91.9648 11.8418L89.1074 19.3613L86.2227 12.1699C86.0221 11.6504 86.2272 11.2539 86.8379 10.9805C87.4577 10.707 88.1595 10.5521 88.9434 10.5156C89.0345 10.3333 89.0345 10.1191 88.9434 9.87305C86.2181 9.99154 83.6888 9.99154 81.3555 9.87305C81.2643 10.1191 81.2643 10.3333 81.3555 10.5156C82.6224 10.6706 83.4154 11.1126 83.7344 11.8418L87.9863 22L86.4824 25.8965C86.1816 26.735 85.8216 27.3913 85.4023 27.8652C84.9831 28.3392 84.5501 28.5762 84.1035 28.5762C83.3561 28.5762 82.9824 28.2025 82.9824 27.4551C82.9824 26.972 83.1602 26.694 83.5156 26.6211C83.6432 26.4115 83.6432 26.1973 83.5156 25.9785C83.0599 25.9785 82.6816 26.1289 82.3809 26.4297C82.0892 26.7396 81.9434 27.168 81.9434 27.7148C81.9434 28.3073 82.1439 28.7858 82.5449 29.1504C82.946 29.515 83.4564 29.6973 84.0762 29.6973C84.8236 29.6973 85.4434 29.4375 85.9355 28.918C86.4277 28.3984 86.9564 27.4004 87.5215 25.9238L88.998 21.9453L93.2227 11.8418C93.5781 11.0124 94.3346 10.5703 95.4922 10.5156C95.5833 10.3333 95.5833 10.1191 95.4922 9.87305Z" fill="#DF8508" fill-opacity="0.93" shape-rendering="crispEdges"/>
</g>
<defs>
<filter id="filter0_d_1_7" x="0.341797" y="0.890625" width="99.8477" height="37.3672" filterUnits="userSpaceOnUse" color-interpolation-filters="sRGB">
<feFlood flood-opacity="0" result="BackgroundImageFix"/>
<feColorMatrix in="SourceAlpha" type="matrix" values="0 0 0 0 0 0 0 0 0 0 0 0 0 0 0 0 0 0 127 0" result="hardAlpha"/>
<feOffset dy="4"/>
<feGaussianBlur stdDeviation="2"/>
<feComposite in2="hardAlpha" operator="out"/>
<feColorMatrix type="matrix" values="0 0 0 0 0 0 0 0 0 0 0 0 0 0 0 0 0 0 0.25 0"/>
<feBlend mode="normal" in2="BackgroundImageFix" result="effect1_dropShadow_1_7"/>
<feBlend mode="normal" in="SourceGraphic" in2="effect1_dropShadow_1_7" result="shape"/>
</filter>
</defs>
</svg>
